<?xml version="1.0" encoding="UTF-8"?>
<svg id="Ebene_2" data-name="Ebene 2" xmlns="http://www.w3.org/2000/svg" viewBox="0 0 659.23 132.69">
  <defs>
    <style>
      .cls-1 {
        fill: #fff;
        stroke-width: 0px;
      }
    </style>
  </defs>
  <g id="Ebene_1-2" data-name="Ebene 1">
    <g>
      <path class="cls-1" d="m0,96.96c0-12.96,8.1-23.4,20.52-23.4,5.22,0,10.35,2.07,13.59,5.94v-19.26h12.06v59.22h-11.43v-5.4c-3.24,4.32-9,6.3-14.4,6.3-12.42,0-20.34-10.44-20.34-23.4Zm34.11,0c0-7.02-4.5-12.24-10.71-12.24s-11.16,5.22-11.16,12.24,4.68,12.24,11.16,12.24,10.71-5.04,10.71-12.24Z"/>
      <path class="cls-1" d="m47.88,61.86c0-3.96,3.24-7.2,7.11-7.2s7.2,3.24,7.2,7.2-3.24,7.11-7.2,7.11-7.11-3.24-7.11-7.11Zm1.17,12.6h12.06v45h-12.06v-45Z"/>
      <path class="cls-1" d="m65.88,127.11l4.5-7.56c3.6,2.79,8.82,4.05,13.05,4.05,8.37,0,12.6-5.04,12.96-12.24.09-.27.09-.63.09-.99-1.98,3.51-6.84,6.66-13.5,6.66-12.51,0-20.34-9.72-20.34-21.69s7.83-21.78,20.34-21.78c5.76,0,11.7,2.52,14.13,7.02v-6.12h11.43v34.11c0,14.76-8.91,24.12-23.85,24.12-8.1,0-14.67-2.16-18.81-5.58Zm30.69-32.04c0-6.3-4.68-11.07-10.89-11.07s-10.8,4.77-10.8,11.34,4.68,11.16,10.8,11.16,10.89-4.68,10.89-11.43Z"/>
      <path class="cls-1" d="m110.16,61.86c0-3.96,3.24-7.2,7.11-7.2s7.2,3.24,7.2,7.2-3.24,7.11-7.2,7.11-7.11-3.24-7.11-7.11Zm1.17,12.6h12.06v45h-12.06v-45Z"/>
      <path class="cls-1" d="m129.33,104.97v-20.79h-6.57v-9.72h6.57v-8.64l12.06-2.7v11.34h12.42v9.72h-12.42v20.61c0,3.87,1.89,5.13,4.05,5.13,2.88,0,5.4-1.62,5.76-1.89l3.42,8.91c-2.7,1.8-6.66,3.42-11.43,3.42-9,0-13.86-5.22-13.86-15.39Z"/>
      <path class="cls-1" d="m152.64,96.96c0-12.96,7.92-23.4,20.34-23.4,5.22,0,10.8,2.07,14.04,6.39v-5.49h11.79v45h-11.79v-5.4c-3.15,4.32-8.82,6.3-14.04,6.3-12.42,0-20.34-10.44-20.34-23.4Zm34.11,0c0-7.02-4.5-12.24-10.71-12.24s-11.16,5.22-11.16,12.24,4.68,12.24,11.16,12.24,10.71-5.04,10.71-12.24Z"/>
      <path class="cls-1" d="m201.69,60.24h12.06v59.22h-12.06v-59.22Z"/>
      <path class="cls-1" d="m350.27,96.96c0-13.05,10.62-23.4,24.03-23.4s24.12,10.35,24.12,23.4-10.62,23.4-24.12,23.4-24.03-10.35-24.03-23.4Zm35.82,0c0-7.02-5.04-12.24-11.79-12.24s-11.79,5.22-11.79,12.24,5.04,12.24,11.79,12.24,11.79-5.13,11.79-12.24Z"/>
      <path class="cls-1" d="m398.59,96.96c0-13.05,10.62-23.4,24.03-23.4,6.21,0,11.61,2.07,16.11,5.76l-7.29,8.46c-2.07-1.89-4.95-3.06-8.55-3.06-7.02,0-12.06,5.13-12.06,12.24s4.77,12.24,12.42,12.24c3.78,0,7.47-1.44,9.81-3.69l6.39,9c-4.32,3.69-10.35,5.85-16.83,5.85-13.41,0-24.03-10.35-24.03-23.4Z"/>
      <path class="cls-1" d="m442.42,104.97v-20.79h-6.57v-9.72h6.57v-8.64l12.06-2.7v11.34h12.42v9.72h-12.42v20.61c0,3.87,1.89,5.13,4.05,5.13,2.88,0,5.4-1.62,5.76-1.89l3.42,8.91c-2.7,1.8-6.66,3.42-11.43,3.42-9,0-13.86-5.22-13.86-15.39Z"/>
      <path class="cls-1" d="m465.74,96.96c0-13.05,10.62-23.4,24.03-23.4s24.12,10.35,24.12,23.4-10.62,23.4-24.12,23.4-24.03-10.35-24.03-23.4Zm35.82,0c0-7.02-5.04-12.24-11.79-12.24s-11.79,5.22-11.79,12.24,5.04,12.24,11.79,12.24,11.79-5.13,11.79-12.24Z"/>
      <path class="cls-1" d="m515.42,74.46h11.43v5.4c3.69-4.41,9-6.3,14.4-6.3,12.42,0,20.34,10.44,20.34,23.31s-8.1,23.49-20.52,23.49c-5.22,0-10.35-2.07-13.59-6.03v18.09h-12.06v-57.96Zm33.84,22.5c0-7.11-4.59-12.24-11.16-12.24-6.12,0-10.71,5.04-10.71,12.24s4.5,12.24,10.71,12.24c6.57,0,11.16-5.13,11.16-12.24Z"/>
      <path class="cls-1" d="m562.75,113.34c0-4.05,3.15-7.11,7.11-7.11s7.2,3.06,7.2,7.11-3.15,7.02-7.2,7.02-7.11-3.15-7.11-7.02Z"/>
      <path class="cls-1" d="m578.95,101.37v-26.91h12.06v25.29c0,6.3,2.7,9.18,8.28,9.18,6.3,0,9.36-5.31,9.36-11.43v-23.04h12.06v45h-11.34v-6.3c-2.7,4.41-8.82,7.2-14.04,7.2-12.42,0-16.38-7.29-16.38-18.99Z"/>
      <path class="cls-1" d="m621.25,114.24l4.32-9.27c3.06,2.34,7.29,4.77,14.04,4.77,2.79,0,7.38-1.08,7.38-3.78s-3.87-3.33-7.74-4.41c-8.91-2.34-16.2-5.31-16.2-13.95,0-9.18,9-14.04,17.46-14.04,7.38,0,12.06,1.8,16.74,4.5l-4.05,9c-4.41-2.16-8.55-3.15-12.51-3.15-2.79,0-5.4,1.26-5.4,3.15,0,2.52,3.78,3.33,7.92,4.23,7.65,1.8,16.02,5.13,16.02,14.31,0,11.07-11.25,14.76-19.62,14.76-9.63,0-15.84-3.78-18.36-6.12Z"/>
    </g>
    <g>
      <path class="cls-1" d="m232.27,102.9c-1.85,5.55-.98,10.64,3.05,15.03,2.49,2.71,6.97,4.79,10.63,4.94-3.92-1.51-6.92-3.97-9.18-7.25-3.94-5.7-3.41-11.12,1.66-15.87,3.64-3.41,7.99-5.43,13.1-5.39,1.68.01,3.24.46,4.57,1.56,1.86,1.53,2.3,3.73,1.17,5.72-1.15,2.02-3.88,3-5.67,2.34-4.65-1.71-9.29,2.21-9.03,7.14.1,1.92,1.11,2.42,2.44,2.92,4.1,1.55,7.85.48,11.34-1.75,4.88-3.12,8.16-7.64,10.7-12.75,2.64-5.31,3.48-11.06,4.15-16.87.36-3.11.14-6.22.14-9.34-.29,2.72-.51,5.45-1.1,8.12-1.13,5.17-3.02,9.96-6.94,13.73-.57.55-.87.57-1.29-.11-3.18-5.13-8.17-5.74-13.5-5.2-3.16.33-6.12,1.49-8.85,3.16-1.74,1.06-2.98,2.68-4.58,3.91-.91.7-1.75,1.49-2.58,2.28-.64.61-1.11.77-1.77-.06-.81-1.02-1.92-1.61-3.31-1.6-1.42.01-2.47.5-3.03,1.85-.19.45-.37.81-.98.58-7.64-2.83-13.51-7.52-15.63-15.72-1.47-5.69-.23-11.03,3.12-15.96-1.59,6.32-.83,12.07,4.05,16.82-.6-1.54-1.19-3.08-1.79-4.61-2.35-6.07-.95-12.58,3.7-17.11,2.55-2.48,5.96-2.91,9.04-1.14.31.18.77.29.7.74-.06.39-.52.33-.81.44-6.5,2.44-9.08,8.99-5.92,15.15,1.75,3.42,4.65,5.53,8.31,6.4,7.86,1.88,15.51,1.28,22.62-2.76,5.35-3.04,8.83-7.72,10.9-13.49.36-.99.24-1.66-.68-2.41-5.05-4.13-5.94-10.37-2.26-15.96.73-1.1.61-1.78-.06-2.8-2.6-3.91-3.89-8.31-4.26-12.95-.7-8.75,1.39-16.73,7.16-23.49C267.62,4.11,275.2.23,284.64,0c15.3-.37,28.88,11.47,31.05,27.1,1.04,7.46-.47,14.44-4.35,20.89-.52.87-.48,1.53.04,2.35,1.2,1.89,2.04,3.94,2.17,6.21.24,4.13-1.29,7.46-4.7,9.84-.79.55-.92,1.05-.64,1.94,3.13,9.77,11.88,16.59,22.24,17.48,3.89.33,7.71.22,11.46-.82,4.73-1.32,8.2-4.09,9.44-9.07,1.26-5.05-1.77-10.51-6.69-12.25-.48-.17-1.28-.13-1.32-.7-.04-.64.76-.76,1.26-1,2.98-1.44,5.93-.94,8.49,1.46,4.8,4.49,6.07,9.91,4.21,16.15-.6,2-1.57,3.84-2.22,5.81,4.88-4.72,6.02-10.39,4.24-16.85,1.27,1.56,2.13,3.3,2.71,5.17,2.48,7.94-.28,16.45-6.93,21.7-2.58,2.04-5.54,3.33-8.46,4.73-.39.19-.62.24-.87-.24-1.44-2.9-4.39-3.33-6.44-.82-.84,1.03-1.3.71-2.03.04-1.6-1.47-3.19-2.96-4.87-4.33-3.9-3.16-8.29-5.16-13.41-5.01-4.48.13-8.53,1.32-11.04,5.49-.53.87-.86.18-1.19-.16-4.3-4.39-6.49-9.78-7.34-15.78-.13-.93-.23-1.87-.39-2.8-.09,3.6-.12,7.19.42,10.78,1,6.69,3.29,12.86,7.34,18.31,2.51,3.37,5.58,6.15,9.47,7.84,3.43,1.5,6.93,1.98,10.39-.05.93-.55,1.73-1.22,2.36-2.13-.6.24-.99.86-1.62.95-.36-.21-.19-.47-.14-.68.71-2.54-.25-4.52-2.13-6.13-1.87-1.6-4.01-2.41-6.49-1.6-2.47.81-4.88-.33-5.97-2.88-.91-2.12.04-4.52,2.27-5.68,1.81-.94,3.78-1.15,5.76-.85,5.06.78,9.27,3.17,12.65,7,3.2,3.62,3.18,9.3.52,13.43-1.99,3.09-4.64,5.51-7.94,7.17-.96.48-1.99.73-3.09.99,4.44.27,10.02-2.37,12.9-6.05,3.33-4.25,3.67-8.96,2.04-13.89.34-.23.49-.06.62.08,4.63,5.05,5.72,10.9,2.09,17.05-3.36,5.67-8.75,8.49-15.05,9.67-10.87,2.05-20.14-1.5-28.32-8.42-5.17-4.37-8.81-9.89-11.46-16.1-.15-.36-.19-.8-.7-1.09-.9,1.8-1.73,3.62-2.69,5.37-5.1,9.35-12.43,16.15-22.73,19.35-7.77,2.42-15.43,2.09-22.65-1.91-4.87-2.7-8.34-6.65-9.19-12.38-.66-4.49,1.05-8.28,3.88-11.65.13-.15.27-.32.68-.16ZM290.31,6.55c-.31-.07-.62-.18-.94-.22-8.57-1.15-15.97,1.07-21.98,7.5-7.35,7.87-8.99,19.66-4.01,29.15,1.03,1.96,2.39,3.74,3.11,5.86.24.71.57.53.97.15,1.13-1.07,1.69-2.38,1.74-3.94.06-1.97-.48-3.81-1.13-5.63-1.56-4.33-2.12-8.8-1.28-13.32,1.23-6.57,4.45-11.93,10.24-15.54,4.06-2.53,8.44-3.96,13.28-4.02Zm7.69,51.29c0,2.36,1.74,4.07,4.15,4.05,2.24-.01,3.97-1.74,3.99-3.97.02-2.24-1.82-4.16-3.98-4.15-2.39,0-4.15,1.73-4.15,4.07Zm-29.95,4.03c2.3.01,4.09-1.72,4.11-3.97.02-2.44-1.7-4.14-4.21-4.13-2.2,0-3.91,1.83-3.91,4.19,0,2.23,1.71,3.9,4,3.91Zm9.7-43.58c-.03-1.36-1.31-2.65-2.6-2.62-1.28.03-2.57,1.3-2.57,2.52,0,1.33,1.41,2.65,2.76,2.59,1.28-.06,2.43-1.26,2.4-2.49Zm-6.35,8.42c.8-.04,1.37-.49,1.37-1.33,0-.88-.59-1.47-1.45-1.49-.91-.02-1.38.58-1.37,1.5.01.9.5,1.32,1.45,1.32Z"/>
      <path class="cls-1" d="m227.21,68.68c6.04.2,10.51-2.97,11.76-8.26,1.11-4.68-1.45-9.15-5.83-10.15-1.43-.33-2.85-.14-4.27.15-1.83.37-2.91-.28-3.32-1.97-.37-1.52.46-2.89,2.06-3.41,7.68-2.52,15.62,2.13,17.26,10.1,2.07,10.09-6.08,19.88-16.35,19.66-1.75-.04-3.43-.24-5.02-1.01-1.14-.55-1.5-1.34-1.22-2.62.32-1.47,1.32-2.48,2.48-2.48.82,0,1.64,0,2.46,0Z"/>
      <path class="cls-1" d="m341.94,68.84c.82-.05,1.64-.07,2.45-.17,1.9-.23,3.8,1.61,3.6,3.51-.1.94-.7,1.43-1.52,1.75-5.2,2.04-12.42.47-16.29-3.65-3.58-3.81-5.65-8.21-5.15-13.59.67-7.19,7.59-14.62,17.04-11.69,1.28.4,2.33,1.06,2.49,2.56.21,2-1.28,3.33-3.36,2.95-1.21-.22-2.4-.54-3.65-.34-4.44.7-7.36,5.21-6.38,9.88.87,4.18,4.76,9.19,10.78,8.78Z"/>
    </g>
  </g>
</svg>