<?xml version="1.0" encoding="UTF-8"?>
<svg id="Ebene_1" data-name="Ebene 1" xmlns="http://www.w3.org/2000/svg" viewBox="0 0 313.89 127">
  <defs>
    <style>
      .cls-1 {
        font-family: Arboria-Bold, Arboria;
        font-size: 67px;
        font-weight: 700;
      }

      .cls-1, .cls-2 {
        isolation: isolate;
      }

      .cls-1, .cls-3 {
        fill: #fff;
      }

      .cls-3 {
        stroke-width: 0px;
      }
    </style>
  </defs>
  <g>
    <path class="cls-3" d="m46.82,113.25c-1.49,0-2.78-.02-4.07,0-.65.02-.9-.22-.91-.88-.11-8.66,2.33-16.47,7.78-23.28,2.34-2.92,4.95-5.58,8.05-7.65,3.16-2.11,6.42-4.08,9.79-5.85,5.28-2.78,10.48-5.7,15.09-9.56,1.94-1.62,3.72-3.39,5.31-5.35.2-.24.36-.69.72-.56.3.11.28.56.32.88,1.3,9.66.04,18.97-3.78,27.94-4.06,9.52-10.79,16.45-20.2,20.74-5.8,2.64-11.93,3.73-18.09,3.55Zm5.97-9.94c1.5-.05,2.64-.35,3.78-.6,10.54-2.33,18.2-10.46,20.29-20.46.11-.54.52-1.32.14-1.6-.4-.3-1.12.19-1.62.45-4.06,2.08-8.12,4.15-11.83,6.82-5.14,3.7-9.03,8.37-11.1,14.44-.34.99-.34.99.35.95Z"/>
    <path class="cls-3" d="m40.64,93.82c-.18-1.68.04-3.26.18-4.82.66-7.08,2.55-13.83,5.72-20.2,3.85-7.74,9.6-13.83,16.69-18.71,2.71-1.87,5.47-3.68,7.94-5.88,3.51-3.12,5.66-7.01,6.68-11.55.82-3.66.97-7.35.34-11.06-.07-.4.03-.98-.38-1.12-.4-.13-.56.44-.82.72-2.46,2.69-5.42,4.7-8.61,6.42-4.15,2.23-8.48,4.09-12.58,6.41-.25.14-.59.42-.81.23-.31-.27.05-.61.17-.88,3.46-7.67,8.82-13.64,16.15-17.8,3.1-1.76,6.29-3.37,9.42-5.08,2.51-1.37,4.89-2.91,6.86-5.02.19-.2.37-.58.71-.45.33.13.2.53.24.81.95,7.58-.21,14.85-3.22,21.85-2.07,4.82-4.88,9.13-8.71,12.75-.33.31-.4.73-.51,1.13-1.12,4.04-2.28,8.07-3.84,11.97-2.47,6.15-5.92,11.68-10.34,16.63-3.3,3.7-6.91,7.08-10.65,10.31-4.13,3.56-7.36,7.75-9.9,12.53-.15.28-.22.63-.74.83Z"/>
    <path class="cls-3" d="m27.28,92.54c-.12-10.64,2.43-20.66,7.35-30.05,2.38-4.55,5.41-8.68,8.85-12.52,4.97-5.55,10.87-9.84,17.5-13.15,3.22-1.61,6.53-3.02,9.55-5.01.8-.53,1.53-1.15,2.3-1.72.18-.14.34-.43.6-.28.24.14.15.43.11.66-.54,3.42-1.8,6.5-4.21,9.06-2.03,2.16-4.45,3.83-6.89,5.45-4.01,2.66-7.79,5.59-11.1,9.09-5.04,5.31-8.79,11.41-11.38,18.25-2.42,6.41-3.88,13-4.03,19.87-.19,8.84.63,17.57,2.75,26.16.52,2.09,1.1,4.17,1.9,6.18.09.24.35.55.1.74-.32.24-.52-.16-.73-.33-4.05-3.34-6.78-7.64-8.9-12.36-2.34-5.23-3.55-10.72-3.64-16.46,0-.6-.1-1.19-.12-1.79-.02-.6,0-1.2,0-1.8Z"/>
    <path class="cls-3" d="m13.08,16.62c-.02-1.74.19-3.46.35-5.19.04-.46.17-.73.65-.32,3.91,3.36,8.62,5.26,13.29,7.24,4.41,1.87,8.64,4.04,12.31,7.16,3.31,2.81,5.87,6.22,7.87,10.05.37.72.71,1.46,1.09,2.17.27.51.23.87-.27,1.22-1.73,1.2-3.27,2.62-4.81,4.05-.43.4-.66.36-.95-.14-.99-1.78-1.75-3.68-2.82-5.41-1.89-3.06-4.32-5.59-7.35-7.52-2.02-1.29-4.08-2.53-6.34-3.38-.25-.09-.53-.33-.75-.14-.3.25,0,.56.1.82,1.13,3.24,3.29,5.73,5.8,7.97,3.14,2.8,6.7,5.04,10.01,7.62q1.42,1.11.13,2.36c-1.57,1.53-3.05,3.13-4.27,4.96-.31.47-.62.56-1.12.3-4.32-2.24-8.64-4.48-12.18-7.88-4.31-4.15-7.39-9.07-9.08-14.85-1.06-3.62-1.65-7.29-1.65-11.06Z"/>
    <path class="cls-3" d="m1.18,41.95c.13.08.3.14.43.26,3.6,3.32,8,5.24,12.44,7.05,4.24,1.73,8.62,3.14,12.72,5.23,1.58.81,3.05,1.78,4.51,2.79.55.38.57.76.25,1.28-1.51,2.49-2.77,5.11-3.81,7.83-.2.53-.44.66-.9.24-3.58-3.24-7.78-5.47-12.11-7.49-.28-.13-.64-.44-.9-.18-.24.25.08.61.2.9,1.85,4.23,4.8,7.48,8.78,9.81.83.48,1.64,1,2.47,1.48.39.23.54.5.38.96-1.11,3.3-1.94,6.67-2.3,10.14-.07.65-.41.59-.88.37-4.78-2.23-8.8-5.41-12.15-9.48-5.46-6.63-8.5-14.25-9.45-22.73-.29-2.58-.41-5.19-.05-7.79.03-.25-.05-.56.37-.66Z"/>
    <path class="cls-3" d="m37.32,11.11c-.21-5.16,4.24-9.64,9.88-9.44,5.11.18,9.26,4.29,9.24,9.53-.02,5.94-5.46,9.71-9.79,9.53-5.26-.22-9.36-4.28-9.33-9.62Z"/>
  </g>
  <g class="cls-2">
    <text class="cls-1" transform="translate(121.55 82.47)"><tspan x="0" y="0">plants</tspan></text>
  </g>
</svg>