<?xml version="1.0" encoding="UTF-8"?>
<svg id="Ebene_1" data-name="Ebene 1" xmlns="http://www.w3.org/2000/svg" viewBox="0 0 200 200">
  <defs>
    <style>
      .cls-1 {
        fill: #fff;
        stroke-width: 0px;
      }
    </style>
  </defs>
  <path class="cls-1" d="m35.96,145.57c-2.24,6.74-1.19,12.91,3.7,18.24,3.02,3.28,8.46,5.81,12.9,5.99-4.76-1.83-8.4-4.82-11.15-8.79-4.78-6.92-4.14-13.49,2.02-19.27,4.42-4.14,9.69-6.59,15.9-6.54,2.04.02,3.94.56,5.55,1.89,2.26,1.86,2.8,4.52,1.41,6.95-1.39,2.45-4.71,3.64-6.88,2.84-5.64-2.07-11.27,2.68-10.96,8.66.12,2.33,1.35,2.94,2.96,3.55,4.97,1.88,9.53.58,13.76-2.12,5.92-3.79,9.9-9.27,12.98-15.47,3.2-6.45,4.23-13.43,5.04-20.47.43-3.78.17-7.55.17-11.33-.36,3.3-.62,6.62-1.33,9.86-1.37,6.27-3.67,12.09-8.43,16.67-.69.67-1.05.7-1.57-.13-3.86-6.23-9.92-6.97-16.38-6.31-3.84.39-7.43,1.81-10.75,3.84-2.11,1.29-3.62,3.26-5.55,4.74-1.1.85-2.12,1.81-3.13,2.76-.78.74-1.34.94-2.15-.07-.99-1.24-2.33-1.95-4.02-1.94-1.72.02-3,.61-3.68,2.25-.23.55-.45.98-1.19.71-9.27-3.44-16.39-9.12-18.97-19.08-1.79-6.9-.28-13.39,3.79-19.37-1.93,7.68-1.01,14.65,4.92,20.41-.72-1.87-1.44-3.73-2.17-5.6-2.86-7.37-1.15-15.27,4.49-20.76,3.09-3.01,7.24-3.54,10.97-1.38.37.21.94.35.85.9-.07.47-.63.4-.98.54-7.89,2.96-11.02,10.91-7.18,18.39,2.13,4.15,5.64,6.71,10.09,7.77,9.54,2.28,18.82,1.55,27.46-3.35,6.5-3.69,10.72-9.37,13.23-16.37.43-1.2.29-2.01-.82-2.92-6.13-5.01-7.21-12.58-2.74-19.37.88-1.34.75-2.16-.08-3.4-3.16-4.75-4.72-10.09-5.17-15.72-.85-10.62,1.68-20.3,8.69-28.51,7.32-8.57,16.52-13.27,27.97-13.55,18.57-.44,35.05,13.92,37.69,32.89,1.26,9.06-.57,17.53-5.28,25.36-.64,1.06-.58,1.85.05,2.86,1.46,2.29,2.48,4.78,2.63,7.53.29,5.02-1.56,9.05-5.7,11.94-.95.66-1.12,1.27-.77,2.35,3.8,11.86,14.42,20.14,26.99,21.22,4.72.41,9.36.27,13.91-1,5.74-1.6,9.95-4.97,11.46-11,1.53-6.13-2.14-12.76-8.12-14.86-.58-.2-1.56-.16-1.6-.85-.05-.77.93-.93,1.53-1.22,3.62-1.74,7.2-1.14,10.3,1.77,5.83,5.45,7.37,12.03,5.11,19.61-.72,2.42-1.91,4.66-2.69,7.05,5.92-5.73,7.31-12.61,5.15-20.46,1.54,1.89,2.58,4,3.29,6.27,3.01,9.64-.34,19.96-8.41,26.34-3.13,2.47-6.72,4.05-10.27,5.74-.47.23-.76.3-1.05-.29-1.75-3.52-5.32-4.04-7.81-1-1.02,1.25-1.58.86-2.46.05-1.94-1.78-3.87-3.59-5.92-5.25-4.73-3.84-10.06-6.27-16.27-6.09-5.44.16-10.35,1.61-13.4,6.66-.64,1.06-1.04.22-1.45-.19-5.22-5.33-7.88-11.87-8.91-19.15-.16-1.13-.27-2.26-.48-3.39-.11,4.37-.15,8.73.51,13.09,1.22,8.12,4,15.61,8.91,22.22,3.04,4.09,6.77,7.46,11.49,9.52,4.17,1.82,8.42,2.4,12.61-.07,1.13-.66,2.11-1.48,2.87-2.58-.72.29-1.2,1.05-1.97,1.15-.44-.25-.24-.57-.16-.82.86-3.08-.31-5.49-2.58-7.44-2.27-1.94-4.87-2.92-7.88-1.94-3,.98-5.93-.4-7.25-3.49-1.1-2.57.05-5.49,2.76-6.89,2.2-1.14,4.59-1.4,6.99-1.03,6.14.95,11.25,3.85,15.35,8.49,3.89,4.39,3.86,11.29.64,16.3-2.42,3.75-5.63,6.68-9.64,8.7-1.17.59-2.42.88-3.75,1.21,5.39.33,12.16-2.88,15.65-7.34,4.04-5.16,4.46-10.88,2.48-16.86.41-.28.59-.08.75.09,5.61,6.13,6.95,13.23,2.53,20.69-4.08,6.89-10.62,10.3-18.27,11.74-13.19,2.49-24.44-1.82-34.38-10.22-6.27-5.3-10.69-12.01-13.9-19.53-.19-.44-.23-.98-.85-1.32-1.09,2.19-2.1,4.39-3.26,6.52-6.19,11.35-15.09,19.6-27.58,23.49-9.42,2.93-18.73,2.54-27.49-2.31-5.91-3.28-10.13-8.07-11.15-15.03-.8-5.45,1.27-10.05,4.71-14.14.15-.18.33-.39.82-.2ZM106.4,28.63c-.38-.09-.76-.21-1.14-.26-10.4-1.4-19.38,1.3-26.67,9.1-8.92,9.55-10.91,23.86-4.87,35.38,1.25,2.38,2.91,4.54,3.78,7.11.29.86.69.65,1.18.19,1.37-1.3,2.05-2.89,2.11-4.78.07-2.39-.58-4.62-1.37-6.84-1.89-5.26-2.58-10.68-1.55-16.16,1.49-7.97,5.4-14.48,12.43-18.86,4.92-3.07,10.24-4.81,16.12-4.88Zm9.33,62.25c0,2.87,2.12,4.94,5.03,4.92,2.72-.01,4.82-2.11,4.84-4.82.02-2.71-2.21-5.05-4.83-5.04-2.91,0-5.04,2.1-5.04,4.94Zm-36.35,4.89c2.79.01,4.97-2.09,4.99-4.81.03-2.96-2.07-5.02-5.11-5.02-2.68,0-4.75,2.22-4.74,5.08,0,2.71,2.08,4.73,4.86,4.75Zm11.77-52.89c-.04-1.65-1.6-3.22-3.15-3.18-1.56.04-3.11,1.57-3.11,3.06,0,1.61,1.71,3.21,3.35,3.14,1.55-.07,2.95-1.53,2.92-3.03Zm-7.71,10.21c.97-.04,1.66-.6,1.67-1.62.01-1.07-.71-1.79-1.76-1.81-1.11-.03-1.68.71-1.66,1.83.02,1.09.61,1.6,1.76,1.61Z"/>
  <path class="cls-1" d="m29.82,104.04c7.33.25,12.75-3.61,14.27-10.03,1.34-5.69-1.76-11.11-7.08-12.32-1.73-.4-3.46-.17-5.18.18-2.22.45-3.53-.34-4.03-2.4-.45-1.84.55-3.5,2.5-4.14,9.32-3.06,18.96,2.58,20.95,12.26,2.51,12.25-7.38,24.12-19.85,23.86-2.12-.04-4.17-.29-6.09-1.22-1.38-.67-1.82-1.63-1.49-3.19.38-1.78,1.61-3.01,3.01-3.01.99,0,1.99,0,2.98,0Z"/>
  <path class="cls-1" d="m169.07,104.23c.99-.06,1.99-.08,2.98-.2,2.3-.28,4.61,1.95,4.36,4.26-.12,1.13-.85,1.74-1.84,2.13-6.32,2.48-15.08.57-19.77-4.43-4.34-4.62-6.86-9.97-6.25-16.5.81-8.73,9.21-17.75,20.68-14.19,1.56.48,2.83,1.29,3.02,3.11.25,2.43-1.55,4.04-4.07,3.58-1.47-.27-2.91-.65-4.43-.41-5.39.85-8.93,6.32-7.74,11.99,1.06,5.08,5.78,11.16,13.08,10.66Z"/>
</svg>